<?xml version="1.0" encoding="UTF-8"?>
<svg width="17px" height="17px" viewBox="0 0 17 17" version="1.1" xmlns="http://www.w3.org/2000/svg" xmlns:xlink="http://www.w3.org/1999/xlink">
    <!-- Generator: Sketch 40.3 (33839) - http://www.bohemiancoding.com/sketch -->
    <title>saleszone</title>
    <desc>Created with Sketch.</desc>
    <defs></defs>
    <g id="Page-1" stroke="none" stroke-width="1" fill="none" fill-rule="evenodd">
        <g id="双十一-视觉稿-所有Hover效果" transform="translate(-1524.000000, -756.000000)" fill="#999">
            <g id="Group-16-Copy-3" transform="translate(1312.000000, 665.000000)">
                <path d="M227.646951,99.2035804 C227.714165,99.3708907 227.753333,99.552224 227.753333,99.7432284 L227.753333,106.513006 C227.753333,107.314258 227.103918,107.963673 226.302667,107.963673 L214.697333,107.963673 C213.896082,107.963673 213.246667,107.314258 213.246667,106.513006 L213.246667,99.7432284 C213.246667,99.5517404 213.285835,99.3704071 213.353049,99.2035804 C212.736032,99.0367538 212.279556,98.4792142 212.279556,97.8090062 L212.279556,95.3912284 C212.279556,94.5899769 212.928971,93.9405618 213.730222,93.9405618 L219.326411,93.9405618 L217.254859,91.8690098 C217.064338,91.6784889 217.064338,91.3699804 217.254859,91.1794595 C217.445863,90.9884551 217.754372,90.9884551 217.945376,91.1794595 L220.360252,93.594336 C220.451644,93.685728 220.496615,93.8051662 220.5,93.925088 C220.503868,93.8051662 220.548356,93.6862115 220.639748,93.594336 L223.054624,91.1794595 C223.245628,90.9884551 223.554137,90.9884551 223.745141,91.1794595 C223.935662,91.3699804 223.935662,91.6784889 223.745141,91.8690098 L221.673589,93.9405618 L227.269778,93.9405618 C228.071029,93.9405618 228.720444,94.5899769 228.720444,95.3912285 L228.720444,97.8090062 C228.720444,98.4792142 228.264452,99.0367538 227.646951,99.2035804 L227.646951,99.2035804 Z M225.819111,106.996562 C226.352956,106.996562 226.786222,106.563296 226.786222,106.029451 L226.786222,100.226784 C226.786222,99.6929387 226.352956,99.2596729 225.819111,99.2596729 L220.983556,99.2596729 L220.983556,106.996562 L225.819111,106.996562 L225.819111,106.996562 Z M214.213778,106.029451 C214.213778,106.563296 214.647044,106.996562 215.180889,106.996562 L220.016444,106.996562 L220.016444,99.2596729 L215.180889,99.2596729 C214.647044,99.2596729 214.213778,99.6929387 214.213778,100.226784 L214.213778,106.029451 L214.213778,106.029451 Z M214.213778,94.9076729 C213.679932,94.9076729 213.246667,95.3409387 213.246667,95.874784 L213.246667,97.3254507 C213.246667,97.859296 213.679932,98.2925618 214.213778,98.2925618 L220.016444,98.2925618 L220.016444,94.9076729 L214.213778,94.9076729 L214.213778,94.9076729 Z M227.753333,95.874784 C227.753333,95.3409387 227.320068,94.9076729 226.786222,94.9076729 L220.983556,94.9076729 L220.983556,98.2925618 L226.786222,98.2925618 C227.320068,98.2925618 227.753333,97.859296 227.753333,97.3254507 L227.753333,95.874784 L227.753333,95.874784 Z" id="saleszone"></path>
            </g>
        </g>
    </g>
</svg>
