<?xml version="1.0" encoding="UTF-8"?>
<svg width="13px" height="18px" viewBox="0 0 13 18" version="1.1" xmlns="http://www.w3.org/2000/svg" xmlns:xlink="http://www.w3.org/1999/xlink">
    <!-- Generator: sketchtool 40.3 (33839) - http://www.bohemiancoding.com/sketch -->
    <title>7186514F-3FCD-4F41-BC61-1BF1E8A49CF0</title>
    <desc>Created with sketchtool.</desc>
    <defs></defs>
    <g id="Page-1" stroke="none" stroke-width="1" fill="none" fill-rule="evenodd">
        <g id="双十一-视觉稿-所有Hover效果" transform="translate(-1526.000000, -716.000000)" fill="#999">
            <g id="Group-16-Copy-3" transform="translate(1312.000000, 665.000000)">
                <g id="Group-29" transform="translate(0.000000, 40.000000)">
                    <g id="Group-27" transform="translate(200.000000, 0.000000)">
                        <path d="M25.0626353,11 L18.8664,11 C18.2624784,11 17.7171373,11.378 17.5093882,11.939 L14.4112706,20.2508 C14.2476078,20.6912 14.3110196,21.1856 14.5827843,21.5726 C14.8533412,21.9566 15.2966196,22.1858 15.7682824,22.1858 L16.8480941,22.1858 L15.1746275,27.098 C14.9493647,27.752 15.2253569,28.4732 15.8256549,28.8104 C16.0430667,28.9346 16.2906745,29 16.5431137,29 C16.9700863,29 17.3747137,28.8122 17.6591608,28.4774 L25.2407922,19.2644 C25.6031451,18.839 25.6834667,18.2372 25.4473333,17.7308 C25.2099922,17.2256 24.6960549,16.8998 24.1356157,16.8998 L23.7466902,16.8998 L26.2348471,13.2812 C26.4160235,13.0346 26.5114431,12.743 26.5114431,12.4376 C26.5114431,11.645 25.8616235,11 25.0626353,11 Z M25.3186646,12.6988525 L21.7922974,17.9919434 L24.1641846,17.9919434 C24.2547728,17.9919434 24.298533,17.9907227 24.4092407,18.1439819 C24.5199484,18.2972412 24.4738603,18.4300256 24.4092407,18.5062256 L16.795105,27.7682 C16.717803,27.8582 16.5272144,27.8276 16.4233398,27.7682 C16.3249006,27.713 16.2100544,27.5110555 16.2474976,27.4018555 L18.381958,21.0623779 L15.8065186,21.0623779 C15.7286127,21.0623779 15.5161322,20.9645503 15.4720459,20.9015503 C15.4267518,20.8373503 15.4448694,20.6301665 15.4720459,20.5581665 L18.5324314,12.3257446 C18.5656471,12.2345446 18.7035627,12.0883179 18.802002,12.0883179 L25.036499,12.0883179 C25.1693618,12.0883179 25.4048462,12.3373396 25.4048462,12.4681396 C25.4048462,12.5185396 25.3186646,12.6988525 25.3186646,12.6988525 Z" id="flashdeal"></path>
                    </g>
                </g>
            </g>
        </g>
    </g>
</svg>
